PathFileType	4	(X/Y/Z)	C:/Users/beibeiliu/ov580/test_trc/User3\sequence.34_training_dense_left.trc
DataRate	CameraRate	NumFrames	NumMarkers	Units	OrigDataRate	OrigDataStartFrame	OrigNumFrames
120	120	11	19	mm	120	28	83
Frame#	Time	ThumbCMC			ThumbMCP			ThumbIP			ThumbTip			IndexMCP			IndexPIP			IndexTip			MiddleMCP			MiddlePIP			MiddleTip			RingMCP			RingPIP			RingTip			PinkyMCP			PinkyPIP			PinkyTip			BackHand1			BackHand2			BackHand3	
		X0	Y0	Z0	X1	Y1	Z1	X2	Y2	Z2	X3	Y3	Z3	X4	Y4	Z4	X5	Y5	Z5	X6	Y6	Z6	X7	Y7	Z7	X8	Y8	Z8	X9	Y9	Z9	X10	Y10	Z10	X11	Y11	Z11	X12	Y12	Z12	X13	Y13	Z13	X14	Y14	Z14	X15	Y15	Z15	X16	Y16	Z16	X17	Y17	Z17	X18	Y18	Z18	
27	0.225	-142.384	8.93677	13.6643	-133.66	22.3714	-13.977	-131.469	25.2205	-47.3364	-124.315	24.471	-69.2864	-148.979	-14.1292	-56.5678	-114.809	-11.1581	-68.7112	-97.9021	-12.7358	-42.1976	-143.508	-33.5172	-60.6614	-111.249	-34.9907	-65.43	-91.6767	-22.659	-30.3605	-140.169	-53.5543	-48.1416	-106.752	-49.1003	-50.01	-93.4046	-38.9054	-25.0845	-137.796	-70.4726	-34.7304	-114.114	-62.3386	-42.2645	-97.1335	-47.3999	-21.365	-169.913	-44.872	1.9102	-167.509	-44.6585	34.3772	-170.489	-14.5344	9.22611	
28	0.233333	-143.109	16.7809	13.3966	-134.704	25.9709	-9.55572	-129.536	31.2582	-40.4295	-121.752	26.9506	-62.2441	-147.569	-9.75092	-58.8352	-118.454	-10.7528	-71.4246	-93.9811	-9.49458	-44.0696	-145.715	-28.6931	-57.4728	-110.361	-28.7702	-67.4985	-90.184	-25.0217	-38.8179	-137.183	-47.7533	-49.4628	-106.224	-43.9127	-53.6203	-89.9743	-34.596	-29.456	-137.578	-63.2674	-34.7966	-108.95	-59.4689	-41.5073	-91.7223	-45.037	-22.7208	-170.236	-46.1452	-0.16586	-167.592	-39.4972	35.5998	-170.522	-10.577	12.9195	
29	0.241667	-140.662	16.2604	18.1114	-134.429	25.6842	-10.7185	-127.234	34.3008	-39.8051	-117.748	24.2186	-62.8324	-148.619	-10.3621	-56.0225	-118.761	-8.49644	-73.0292	-92.6427	-4.39545	-49.728	-144.249	-32.864	-58.9305	-111.612	-30.301	-68.0149	-87.0807	-22.5676	-36.2329	-137.467	-46.9613	-48.024	-107.12	-45.4562	-53.1688	-88.0024	-38.3138	-28.708	-136.04	-61.1911	-33.8437	-107.583	-58.1782	-42.0605	-91.197	-43.2037	-23.3764	-168.371	-40.379	4.08928	-165.365	-38.5657	33.1382	-168.992	-8.50023	13.9714	
30	0.25	-140.467	8.89122	14.3303	-131.757	21.8698	-14.6607	-123.552	20.0202	-39.6786	-116.558	12.4472	-64.6978	-146.324	-9.58498	-60.0409	-119.794	-13.4821	-72.2048	-91.4767	-10.9506	-48.0431	-144.965	-35.8095	-55.5703	-110.955	-34.9138	-66.9271	-88.9966	-28.0611	-37.7834	-136.756	-51.2755	-48.9063	-104.959	-50.7168	-50.6191	-89.5266	-35.0167	-27.2344	-133.672	-66.2746	-34.2282	-108.513	-63.0528	-39.9036	-89.5702	-44.6811	-19.0438	-169.881	-48.8114	2.26137	-165.696	-43.5023	35.146	-169.53	-13.62	13.3921	
31	0.258333	-141.216	8.90027	15.7692	-131.768	19.7841	-14.914	-127.02	18.0064	-40.6292	-120.05	17.654	-65.908	-147.359	-15.4348	-58.8445	-119.401	-12.1548	-70.885	-94.2635	-8.70997	-47.7597	-143.826	-36.1482	-58.8954	-111.718	-33.7857	-65.1802	-89.6161	-24.1945	-34.3312	-138.489	-55.3268	-44.793	-110.371	-51.3731	-51.9997	-91.3416	-37.5367	-26.3211	-135.773	-70.4557	-30.3346	-106.894	-64.9529	-38.6155	-92.8907	-49.5891	-21.4846	-170.431	-49.0726	4.37924	-165.304	-42.2651	36.4775	-169.419	-11.109	12.0054	
32	0.266667	-143.069	10.9481	14.4799	-135.75	22.582	-11.9066	-129.787	27.909	-40.99	-124.145	22.0362	-64.0153	-151.055	-11.1416	-55.7438	-119.751	-13.4334	-70.6328	-94.7577	-11.5124	-49.5177	-146.692	-36.7979	-55.8121	-114.364	-35.0587	-67.3793	-91.2141	-24.8826	-36.796	-141.217	-51.6329	-46.6591	-111.526	-52.1782	-53.2707	-92.246	-39.7061	-28.6807	-135.513	-70.0816	-32.138	-110.461	-60.7992	-40.4298	-93.6828	-46.091	-19.2893	-171.257	-49.1712	3.2366	-165.913	-41.4006	35.975	-168.753	-16.0572	13.9478	
33	0.275	-143.398	15.3026	15.9906	-135.92	26.4951	-12.8998	-129.427	27.8074	-44.6694	-122.036	21.5187	-62.4356	-149.669	-13.8771	-55.9604	-120.052	-15.0416	-71.5327	-94.9004	-11.6345	-49.9576	-145.547	-33.2257	-59.0208	-115.177	-33.8019	-68.1221	-91.2161	-26.1428	-39.9292	-140.03	-49.749	-49.0007	-112.03	-50.6078	-53.5729	-92.3983	-39.1009	-26.98	-134.587	-68.3541	-36.5799	-110.421	-59.4234	-39.7822	-92.0844	-49.463	-19.9143	-172.243	-44.0541	1.43819	-168.632	-41.3949	31.0106	-171.232	-13.7397	12.0218	
34	0.283333	-140.974	11.6157	15.6139	-130.359	23.6968	-13.2632	-124.391	21.3259	-41.9369	-118.527	12.143	-64.4963	-148.899	-11.204	-56.0505	-115.19	-14.7005	-69.2803	-95.1201	-13.4796	-49.4827	-144.451	-33.0891	-60.7353	-111.483	-34.4748	-66.2584	-91.4943	-26.5642	-32.8702	-140.464	-52.7193	-48.2813	-108.381	-47.9738	-53.6863	-92.7096	-38.6052	-24.6587	-137.454	-68.83	-32.3961	-108.524	-60.2509	-39.9723	-94.4709	-45.6796	-19.0874	-171.623	-44.1272	1.04331	-167.704	-42.0109	34.5481	-169.932	-14.9094	11.6093	
35	0.291667	-138.861	10.8066	15.3199	-131.094	17.0721	-17.4668	-124.824	15.7055	-43.1853	-117.832	8.97939	-66.4036	-148.166	-12.6967	-58.6822	-113.644	-11.7076	-69.1922	-96.2558	-12.0083	-46.4559	-143.01	-39.4741	-60.481	-110.725	-34.122	-65.7176	-91.8499	-25.5507	-33.0859	-138.315	-55.4732	-48.2606	-105.833	-50.3735	-51.7793	-93.2113	-39.0258	-25.8642	-133.875	-70.4797	-37.6918	-106.777	-61.4397	-40.1073	-94.4941	-50.518	-18.6974	-171.534	-49.7763	-0.66786	-168.228	-46.1267	32.6234	-167.673	-16.374	12.5982	
36	0.3	-140.398	12.3101	15.3184	-133.315	20.256	-15.2944	-126.387	22.1662	-41.4504	-118.026	19.865	-67.7103	-146.532	-16.7494	-58.2467	-118.2	-16.1122	-72.269	-94.6286	-14.5621	-48.8498	-143.823	-36.9662	-59.3101	-112.317	-32.8933	-69.0846	-90.162	-30.1202	-36.6404	-137.829	-54.4868	-47.0619	-108.058	-51.0272	-53.7154	-90.7914	-36.4666	-23.9033	-131.961	-67.2195	-37.7399	-107.327	-60.0298	-41.3107	-91.5504	-49.0664	-17.4418	-167.727	-51.7806	2.59459	-166.564	-46.0422	31.1265	-166.671	-17.1383	11.8337	
37	0.308333	-140.297	10.4613	13.5866	-134.186	21.8914	-16.254	-126.045	23.9362	-40.9228	-117.586	19.2573	-66.4563	-143.936	-16.641	-61.9929	-114.948	-14.4515	-73.334	-93.4515	-9.23391	-49.7831	-142.404	-38.0743	-57.8469	-109.854	-34.6771	-68.1515	-89.0288	-29.9022	-37.0639	-135.495	-55.24	-47.8226	-102.872	-47.3615	-53.1886	-87.7483	-39.229	-22.2326	-133.22	-70.1407	-34.7647	-105.031	-63.501	-41.4936	-89.996	-47.9493	-24.4407	-166.292	-46.768	2.87647	-164.524	-49.1364	32.3229	-166.835	-13.6126	9.17987	
